<mxfile host="app.diagrams.net" modified="2024-04-09T17:19:32.061Z" agent="Mozilla/5.0 (Windows NT 10.0; Win64; x64) AppleWebKit/537.36 (KHTML, like Gecko) Chrome/123.0.0.0 Safari/537.36" etag="VZeR99Vp7p9TaygCDHX_" version="24.2.3" type="device">
  <diagram id="C5RBs43oDa-KdzZeNtuy" name="Page-1">
    <mxGraphModel dx="1366" dy="3041" grid="1" gridSize="10" guides="1" tooltips="1" connect="1" arrows="1" fold="1" page="1" pageScale="1" pageWidth="827" pageHeight="1169" math="0" shadow="0">
      <root>
        <mxCell id="WIyWlLk6GJQsqaUBKTNV-0" />
        <mxCell id="WIyWlLk6GJQsqaUBKTNV-1" parent="WIyWlLk6GJQsqaUBKTNV-0" />
        <mxCell id="WIyWlLk6GJQsqaUBKTNV-2" value="" style="rounded=0;html=1;jettySize=auto;orthogonalLoop=1;fontSize=11;endArrow=block;endFill=0;endSize=8;strokeWidth=1;shadow=0;labelBackgroundColor=none;edgeStyle=orthogonalEdgeStyle;entryX=0.5;entryY=0;entryDx=0;entryDy=0;" parent="WIyWlLk6GJQsqaUBKTNV-1" source="WIyWlLk6GJQsqaUBKTNV-3" target="V1sLMrhCYjkei6vN869k-0" edge="1">
          <mxGeometry relative="1" as="geometry" />
        </mxCell>
        <mxCell id="V1sLMrhCYjkei6vN869k-4" style="edgeStyle=orthogonalEdgeStyle;rounded=0;orthogonalLoop=1;jettySize=auto;html=1;entryX=0.5;entryY=0;entryDx=0;entryDy=0;" edge="1" parent="WIyWlLk6GJQsqaUBKTNV-1" source="WIyWlLk6GJQsqaUBKTNV-3" target="V1sLMrhCYjkei6vN869k-1">
          <mxGeometry relative="1" as="geometry" />
        </mxCell>
        <mxCell id="V1sLMrhCYjkei6vN869k-5" style="edgeStyle=orthogonalEdgeStyle;rounded=0;orthogonalLoop=1;jettySize=auto;html=1;entryX=0.5;entryY=0;entryDx=0;entryDy=0;" edge="1" parent="WIyWlLk6GJQsqaUBKTNV-1" source="WIyWlLk6GJQsqaUBKTNV-3" target="V1sLMrhCYjkei6vN869k-2">
          <mxGeometry relative="1" as="geometry" />
        </mxCell>
        <mxCell id="V1sLMrhCYjkei6vN869k-6" style="edgeStyle=orthogonalEdgeStyle;rounded=0;orthogonalLoop=1;jettySize=auto;html=1;entryX=0.5;entryY=0;entryDx=0;entryDy=0;" edge="1" parent="WIyWlLk6GJQsqaUBKTNV-1" source="WIyWlLk6GJQsqaUBKTNV-3" target="WIyWlLk6GJQsqaUBKTNV-6">
          <mxGeometry relative="1" as="geometry" />
        </mxCell>
        <mxCell id="V1sLMrhCYjkei6vN869k-23" style="edgeStyle=orthogonalEdgeStyle;rounded=0;orthogonalLoop=1;jettySize=auto;html=1;" edge="1" parent="WIyWlLk6GJQsqaUBKTNV-1" source="WIyWlLk6GJQsqaUBKTNV-3" target="V1sLMrhCYjkei6vN869k-22">
          <mxGeometry relative="1" as="geometry" />
        </mxCell>
        <mxCell id="WIyWlLk6GJQsqaUBKTNV-3" value="elements" style="rounded=1;whiteSpace=wrap;html=1;fontSize=12;glass=0;strokeWidth=1;shadow=0;" parent="WIyWlLk6GJQsqaUBKTNV-1" vertex="1">
          <mxGeometry x="120" y="160" width="120" height="40" as="geometry" />
        </mxCell>
        <mxCell id="WIyWlLk6GJQsqaUBKTNV-6" value="ALU" style="rhombus;whiteSpace=wrap;html=1;shadow=0;fontFamily=Helvetica;fontSize=12;align=center;strokeWidth=1;spacing=6;spacingTop=-4;" parent="WIyWlLk6GJQsqaUBKTNV-1" vertex="1">
          <mxGeometry x="130" y="240" width="100" height="60" as="geometry" />
        </mxCell>
        <mxCell id="V1sLMrhCYjkei6vN869k-0" value="Stack" style="rhombus;whiteSpace=wrap;html=1;shadow=0;fontFamily=Helvetica;fontSize=12;align=center;strokeWidth=1;spacing=6;spacingTop=-4;" vertex="1" parent="WIyWlLk6GJQsqaUBKTNV-1">
          <mxGeometry x="250" y="240" width="100" height="60" as="geometry" />
        </mxCell>
        <mxCell id="V1sLMrhCYjkei6vN869k-1" value="Program&lt;div&gt;Memory&lt;/div&gt;" style="rhombus;whiteSpace=wrap;html=1;shadow=0;fontFamily=Helvetica;fontSize=12;align=center;strokeWidth=1;spacing=6;spacingTop=-4;" vertex="1" parent="WIyWlLk6GJQsqaUBKTNV-1">
          <mxGeometry x="370" y="240" width="100" height="60" as="geometry" />
        </mxCell>
        <mxCell id="V1sLMrhCYjkei6vN869k-2" value="RAM" style="rhombus;whiteSpace=wrap;html=1;shadow=0;fontFamily=Helvetica;fontSize=12;align=center;strokeWidth=1;spacing=6;spacingTop=-4;" vertex="1" parent="WIyWlLk6GJQsqaUBKTNV-1">
          <mxGeometry x="493.5" y="240" width="100" height="60" as="geometry" />
        </mxCell>
        <mxCell id="V1sLMrhCYjkei6vN869k-20" style="edgeStyle=orthogonalEdgeStyle;rounded=0;orthogonalLoop=1;jettySize=auto;html=1;entryX=0;entryY=0.5;entryDx=0;entryDy=0;" edge="1" parent="WIyWlLk6GJQsqaUBKTNV-1" source="V1sLMrhCYjkei6vN869k-3" target="WIyWlLk6GJQsqaUBKTNV-3">
          <mxGeometry relative="1" as="geometry" />
        </mxCell>
        <mxCell id="V1sLMrhCYjkei6vN869k-21" style="edgeStyle=orthogonalEdgeStyle;rounded=0;orthogonalLoop=1;jettySize=auto;html=1;entryX=0;entryY=0.5;entryDx=0;entryDy=0;" edge="1" parent="WIyWlLk6GJQsqaUBKTNV-1" source="V1sLMrhCYjkei6vN869k-3" target="V1sLMrhCYjkei6vN869k-13">
          <mxGeometry relative="1" as="geometry" />
        </mxCell>
        <mxCell id="V1sLMrhCYjkei6vN869k-3" value="PIC16F8X" style="shape=process;whiteSpace=wrap;html=1;backgroundOutline=1;" vertex="1" parent="WIyWlLk6GJQsqaUBKTNV-1">
          <mxGeometry x="40" y="40" width="120" height="60" as="geometry" />
        </mxCell>
        <mxCell id="V1sLMrhCYjkei6vN869k-9" value="" style="rounded=0;html=1;jettySize=auto;orthogonalLoop=1;fontSize=11;endArrow=block;endFill=0;endSize=8;strokeWidth=1;shadow=0;labelBackgroundColor=none;edgeStyle=orthogonalEdgeStyle;entryX=0.5;entryY=0;entryDx=0;entryDy=0;" edge="1" parent="WIyWlLk6GJQsqaUBKTNV-1" source="V1sLMrhCYjkei6vN869k-13" target="V1sLMrhCYjkei6vN869k-15">
          <mxGeometry relative="1" as="geometry" />
        </mxCell>
        <mxCell id="V1sLMrhCYjkei6vN869k-10" style="edgeStyle=orthogonalEdgeStyle;rounded=0;orthogonalLoop=1;jettySize=auto;html=1;entryX=0.5;entryY=0;entryDx=0;entryDy=0;" edge="1" parent="WIyWlLk6GJQsqaUBKTNV-1" source="V1sLMrhCYjkei6vN869k-13" target="V1sLMrhCYjkei6vN869k-16">
          <mxGeometry relative="1" as="geometry" />
        </mxCell>
        <mxCell id="V1sLMrhCYjkei6vN869k-11" style="edgeStyle=orthogonalEdgeStyle;rounded=0;orthogonalLoop=1;jettySize=auto;html=1;entryX=0.5;entryY=0;entryDx=0;entryDy=0;" edge="1" parent="WIyWlLk6GJQsqaUBKTNV-1" source="V1sLMrhCYjkei6vN869k-13" target="V1sLMrhCYjkei6vN869k-17">
          <mxGeometry relative="1" as="geometry" />
        </mxCell>
        <mxCell id="V1sLMrhCYjkei6vN869k-12" style="edgeStyle=orthogonalEdgeStyle;rounded=0;orthogonalLoop=1;jettySize=auto;html=1;entryX=0.5;entryY=0;entryDx=0;entryDy=0;" edge="1" parent="WIyWlLk6GJQsqaUBKTNV-1" source="V1sLMrhCYjkei6vN869k-13" target="V1sLMrhCYjkei6vN869k-14">
          <mxGeometry relative="1" as="geometry" />
        </mxCell>
        <mxCell id="V1sLMrhCYjkei6vN869k-19" style="edgeStyle=orthogonalEdgeStyle;rounded=0;orthogonalLoop=1;jettySize=auto;html=1;entryX=0.5;entryY=0;entryDx=0;entryDy=0;" edge="1" parent="WIyWlLk6GJQsqaUBKTNV-1" source="V1sLMrhCYjkei6vN869k-13" target="V1sLMrhCYjkei6vN869k-18">
          <mxGeometry relative="1" as="geometry" />
        </mxCell>
        <mxCell id="V1sLMrhCYjkei6vN869k-13" value="instructions" style="rounded=1;whiteSpace=wrap;html=1;fontSize=12;glass=0;strokeWidth=1;shadow=0;" vertex="1" parent="WIyWlLk6GJQsqaUBKTNV-1">
          <mxGeometry x="120" y="350" width="120" height="40" as="geometry" />
        </mxCell>
        <mxCell id="V1sLMrhCYjkei6vN869k-14" value="Instruction" style="rhombus;whiteSpace=wrap;html=1;shadow=0;fontFamily=Helvetica;fontSize=12;align=center;strokeWidth=1;spacing=6;spacingTop=-4;" vertex="1" parent="WIyWlLk6GJQsqaUBKTNV-1">
          <mxGeometry x="130" y="430" width="100" height="60" as="geometry" />
        </mxCell>
        <mxCell id="V1sLMrhCYjkei6vN869k-15" value="Instruction&lt;div&gt;Decoder&lt;/div&gt;" style="rhombus;whiteSpace=wrap;html=1;shadow=0;fontFamily=Helvetica;fontSize=12;align=center;strokeWidth=1;spacing=6;spacingTop=-4;" vertex="1" parent="WIyWlLk6GJQsqaUBKTNV-1">
          <mxGeometry x="250" y="430" width="100" height="60" as="geometry" />
        </mxCell>
        <mxCell id="V1sLMrhCYjkei6vN869k-16" value="Instruction&lt;div&gt;Line&lt;/div&gt;" style="rhombus;whiteSpace=wrap;html=1;shadow=0;fontFamily=Helvetica;fontSize=12;align=center;strokeWidth=1;spacing=6;spacingTop=-4;" vertex="1" parent="WIyWlLk6GJQsqaUBKTNV-1">
          <mxGeometry x="370" y="430" width="100" height="60" as="geometry" />
        </mxCell>
        <mxCell id="V1sLMrhCYjkei6vN869k-17" value="Instruction&lt;div&gt;Type&lt;/div&gt;" style="rhombus;whiteSpace=wrap;html=1;shadow=0;fontFamily=Helvetica;fontSize=12;align=center;strokeWidth=1;spacing=6;spacingTop=-4;" vertex="1" parent="WIyWlLk6GJQsqaUBKTNV-1">
          <mxGeometry x="493.5" y="430" width="100" height="60" as="geometry" />
        </mxCell>
        <mxCell id="V1sLMrhCYjkei6vN869k-18" value="LST&lt;div&gt;line&lt;/div&gt;" style="rhombus;whiteSpace=wrap;html=1;shadow=0;fontFamily=Helvetica;fontSize=12;align=center;strokeWidth=1;spacing=6;spacingTop=-4;" vertex="1" parent="WIyWlLk6GJQsqaUBKTNV-1">
          <mxGeometry x="610" y="430" width="100" height="60" as="geometry" />
        </mxCell>
        <mxCell id="V1sLMrhCYjkei6vN869k-22" value="Timer" style="rhombus;whiteSpace=wrap;html=1;shadow=0;fontFamily=Helvetica;fontSize=12;align=center;strokeWidth=1;spacing=6;spacingTop=-4;" vertex="1" parent="WIyWlLk6GJQsqaUBKTNV-1">
          <mxGeometry x="610" y="240" width="100" height="60" as="geometry" />
        </mxCell>
        <mxCell id="V1sLMrhCYjkei6vN869k-47" style="edgeStyle=orthogonalEdgeStyle;rounded=0;orthogonalLoop=1;jettySize=auto;html=1;entryX=0;entryY=0.5;entryDx=0;entryDy=0;" edge="1" parent="WIyWlLk6GJQsqaUBKTNV-1" source="V1sLMrhCYjkei6vN869k-24" target="V1sLMrhCYjkei6vN869k-28">
          <mxGeometry relative="1" as="geometry" />
        </mxCell>
        <mxCell id="V1sLMrhCYjkei6vN869k-48" style="edgeStyle=orthogonalEdgeStyle;rounded=0;orthogonalLoop=1;jettySize=auto;html=1;entryX=0;entryY=0.5;entryDx=0;entryDy=0;" edge="1" parent="WIyWlLk6GJQsqaUBKTNV-1" source="V1sLMrhCYjkei6vN869k-24" target="V1sLMrhCYjkei6vN869k-25">
          <mxGeometry relative="1" as="geometry" />
        </mxCell>
        <mxCell id="V1sLMrhCYjkei6vN869k-49" style="edgeStyle=orthogonalEdgeStyle;rounded=0;orthogonalLoop=1;jettySize=auto;html=1;entryX=0;entryY=0.5;entryDx=0;entryDy=0;" edge="1" parent="WIyWlLk6GJQsqaUBKTNV-1" source="V1sLMrhCYjkei6vN869k-24" target="V1sLMrhCYjkei6vN869k-29">
          <mxGeometry relative="1" as="geometry" />
        </mxCell>
        <mxCell id="V1sLMrhCYjkei6vN869k-68" style="edgeStyle=orthogonalEdgeStyle;rounded=0;orthogonalLoop=1;jettySize=auto;html=1;entryX=0;entryY=0.5;entryDx=0;entryDy=0;" edge="1" parent="WIyWlLk6GJQsqaUBKTNV-1" source="V1sLMrhCYjkei6vN869k-24" target="V1sLMrhCYjkei6vN869k-26">
          <mxGeometry relative="1" as="geometry" />
        </mxCell>
        <mxCell id="V1sLMrhCYjkei6vN869k-69" style="edgeStyle=orthogonalEdgeStyle;rounded=0;orthogonalLoop=1;jettySize=auto;html=1;entryX=0;entryY=0.5;entryDx=0;entryDy=0;" edge="1" parent="WIyWlLk6GJQsqaUBKTNV-1" source="V1sLMrhCYjkei6vN869k-24" target="V1sLMrhCYjkei6vN869k-66">
          <mxGeometry relative="1" as="geometry" />
        </mxCell>
        <mxCell id="V1sLMrhCYjkei6vN869k-77" style="edgeStyle=orthogonalEdgeStyle;rounded=0;orthogonalLoop=1;jettySize=auto;html=1;entryX=0;entryY=0.5;entryDx=0;entryDy=0;" edge="1" parent="WIyWlLk6GJQsqaUBKTNV-1" source="V1sLMrhCYjkei6vN869k-24" target="V1sLMrhCYjkei6vN869k-42">
          <mxGeometry relative="1" as="geometry" />
        </mxCell>
        <mxCell id="V1sLMrhCYjkei6vN869k-78" style="edgeStyle=orthogonalEdgeStyle;rounded=0;orthogonalLoop=1;jettySize=auto;html=1;entryX=0;entryY=0.5;entryDx=0;entryDy=0;" edge="1" parent="WIyWlLk6GJQsqaUBKTNV-1" source="V1sLMrhCYjkei6vN869k-24" target="V1sLMrhCYjkei6vN869k-27">
          <mxGeometry relative="1" as="geometry" />
        </mxCell>
        <mxCell id="V1sLMrhCYjkei6vN869k-80" style="edgeStyle=orthogonalEdgeStyle;rounded=0;orthogonalLoop=1;jettySize=auto;html=1;entryX=0;entryY=0.5;entryDx=0;entryDy=0;" edge="1" parent="WIyWlLk6GJQsqaUBKTNV-1" source="V1sLMrhCYjkei6vN869k-24" target="V1sLMrhCYjkei6vN869k-79">
          <mxGeometry relative="1" as="geometry" />
        </mxCell>
        <mxCell id="V1sLMrhCYjkei6vN869k-24" value="GUI" style="shape=process;whiteSpace=wrap;html=1;backgroundOutline=1;" vertex="1" parent="WIyWlLk6GJQsqaUBKTNV-1">
          <mxGeometry x="40" y="-1370" width="120" height="60" as="geometry" />
        </mxCell>
        <mxCell id="V1sLMrhCYjkei6vN869k-40" style="edgeStyle=orthogonalEdgeStyle;rounded=0;orthogonalLoop=1;jettySize=auto;html=1;" edge="1" parent="WIyWlLk6GJQsqaUBKTNV-1" source="V1sLMrhCYjkei6vN869k-25" target="V1sLMrhCYjkei6vN869k-34">
          <mxGeometry relative="1" as="geometry" />
        </mxCell>
        <mxCell id="V1sLMrhCYjkei6vN869k-41" style="edgeStyle=orthogonalEdgeStyle;rounded=0;orthogonalLoop=1;jettySize=auto;html=1;entryX=0.5;entryY=0;entryDx=0;entryDy=0;" edge="1" parent="WIyWlLk6GJQsqaUBKTNV-1" source="V1sLMrhCYjkei6vN869k-25" target="V1sLMrhCYjkei6vN869k-36">
          <mxGeometry relative="1" as="geometry" />
        </mxCell>
        <mxCell id="V1sLMrhCYjkei6vN869k-25" value="I/O PINS" style="rounded=1;whiteSpace=wrap;html=1;fontSize=12;glass=0;strokeWidth=1;shadow=0;" vertex="1" parent="WIyWlLk6GJQsqaUBKTNV-1">
          <mxGeometry x="120" y="-1100" width="120" height="40" as="geometry" />
        </mxCell>
        <mxCell id="V1sLMrhCYjkei6vN869k-58" style="edgeStyle=orthogonalEdgeStyle;rounded=0;orthogonalLoop=1;jettySize=auto;html=1;" edge="1" parent="WIyWlLk6GJQsqaUBKTNV-1" source="V1sLMrhCYjkei6vN869k-26" target="V1sLMrhCYjkei6vN869k-50">
          <mxGeometry relative="1" as="geometry" />
        </mxCell>
        <mxCell id="V1sLMrhCYjkei6vN869k-59" style="edgeStyle=orthogonalEdgeStyle;rounded=0;orthogonalLoop=1;jettySize=auto;html=1;entryX=0.5;entryY=0;entryDx=0;entryDy=0;" edge="1" parent="WIyWlLk6GJQsqaUBKTNV-1" source="V1sLMrhCYjkei6vN869k-26" target="V1sLMrhCYjkei6vN869k-51">
          <mxGeometry relative="1" as="geometry" />
        </mxCell>
        <mxCell id="V1sLMrhCYjkei6vN869k-60" style="edgeStyle=orthogonalEdgeStyle;rounded=0;orthogonalLoop=1;jettySize=auto;html=1;" edge="1" parent="WIyWlLk6GJQsqaUBKTNV-1" source="V1sLMrhCYjkei6vN869k-26" target="V1sLMrhCYjkei6vN869k-52">
          <mxGeometry relative="1" as="geometry" />
        </mxCell>
        <mxCell id="V1sLMrhCYjkei6vN869k-61" style="edgeStyle=orthogonalEdgeStyle;rounded=0;orthogonalLoop=1;jettySize=auto;html=1;entryX=0.5;entryY=0;entryDx=0;entryDy=0;" edge="1" parent="WIyWlLk6GJQsqaUBKTNV-1" source="V1sLMrhCYjkei6vN869k-26" target="V1sLMrhCYjkei6vN869k-53">
          <mxGeometry relative="1" as="geometry" />
        </mxCell>
        <mxCell id="V1sLMrhCYjkei6vN869k-62" style="edgeStyle=orthogonalEdgeStyle;rounded=0;orthogonalLoop=1;jettySize=auto;html=1;entryX=0.5;entryY=0;entryDx=0;entryDy=0;" edge="1" parent="WIyWlLk6GJQsqaUBKTNV-1" source="V1sLMrhCYjkei6vN869k-26" target="V1sLMrhCYjkei6vN869k-54">
          <mxGeometry relative="1" as="geometry" />
        </mxCell>
        <mxCell id="V1sLMrhCYjkei6vN869k-63" style="edgeStyle=orthogonalEdgeStyle;rounded=0;orthogonalLoop=1;jettySize=auto;html=1;entryX=0.5;entryY=0;entryDx=0;entryDy=0;" edge="1" parent="WIyWlLk6GJQsqaUBKTNV-1" source="V1sLMrhCYjkei6vN869k-26" target="V1sLMrhCYjkei6vN869k-55">
          <mxGeometry relative="1" as="geometry" />
        </mxCell>
        <mxCell id="V1sLMrhCYjkei6vN869k-64" style="edgeStyle=orthogonalEdgeStyle;rounded=0;orthogonalLoop=1;jettySize=auto;html=1;entryX=0.5;entryY=0;entryDx=0;entryDy=0;" edge="1" parent="WIyWlLk6GJQsqaUBKTNV-1" source="V1sLMrhCYjkei6vN869k-26" target="V1sLMrhCYjkei6vN869k-56">
          <mxGeometry relative="1" as="geometry" />
        </mxCell>
        <mxCell id="V1sLMrhCYjkei6vN869k-65" style="edgeStyle=orthogonalEdgeStyle;rounded=0;orthogonalLoop=1;jettySize=auto;html=1;entryX=0.5;entryY=0;entryDx=0;entryDy=0;" edge="1" parent="WIyWlLk6GJQsqaUBKTNV-1" source="V1sLMrhCYjkei6vN869k-26" target="V1sLMrhCYjkei6vN869k-57">
          <mxGeometry relative="1" as="geometry" />
        </mxCell>
        <mxCell id="V1sLMrhCYjkei6vN869k-26" value="Status-Flag" style="rounded=1;whiteSpace=wrap;html=1;fontSize=12;glass=0;strokeWidth=1;shadow=0;" vertex="1" parent="WIyWlLk6GJQsqaUBKTNV-1">
          <mxGeometry x="120" y="-700" width="120" height="40" as="geometry" />
        </mxCell>
        <mxCell id="V1sLMrhCYjkei6vN869k-27" value="File-Chooser" style="rounded=1;whiteSpace=wrap;html=1;fontSize=12;glass=0;strokeWidth=1;shadow=0;" vertex="1" parent="WIyWlLk6GJQsqaUBKTNV-1">
          <mxGeometry x="120" y="-280" width="120" height="40" as="geometry" />
        </mxCell>
        <mxCell id="V1sLMrhCYjkei6vN869k-32" style="edgeStyle=orthogonalEdgeStyle;rounded=0;orthogonalLoop=1;jettySize=auto;html=1;" edge="1" parent="WIyWlLk6GJQsqaUBKTNV-1" source="V1sLMrhCYjkei6vN869k-28" target="V1sLMrhCYjkei6vN869k-31">
          <mxGeometry relative="1" as="geometry" />
        </mxCell>
        <mxCell id="V1sLMrhCYjkei6vN869k-33" style="edgeStyle=orthogonalEdgeStyle;rounded=0;orthogonalLoop=1;jettySize=auto;html=1;entryX=0.5;entryY=0;entryDx=0;entryDy=0;" edge="1" parent="WIyWlLk6GJQsqaUBKTNV-1" source="V1sLMrhCYjkei6vN869k-28" target="V1sLMrhCYjkei6vN869k-30">
          <mxGeometry relative="1" as="geometry" />
        </mxCell>
        <mxCell id="V1sLMrhCYjkei6vN869k-28" value="Timing" style="rounded=1;whiteSpace=wrap;html=1;fontSize=12;glass=0;strokeWidth=1;shadow=0;" vertex="1" parent="WIyWlLk6GJQsqaUBKTNV-1">
          <mxGeometry x="120" y="-1260" width="120" height="40" as="geometry" />
        </mxCell>
        <mxCell id="V1sLMrhCYjkei6vN869k-45" style="edgeStyle=orthogonalEdgeStyle;rounded=0;orthogonalLoop=1;jettySize=auto;html=1;entryX=0.5;entryY=0;entryDx=0;entryDy=0;" edge="1" parent="WIyWlLk6GJQsqaUBKTNV-1" source="V1sLMrhCYjkei6vN869k-29" target="V1sLMrhCYjkei6vN869k-43">
          <mxGeometry relative="1" as="geometry" />
        </mxCell>
        <mxCell id="V1sLMrhCYjkei6vN869k-46" style="edgeStyle=orthogonalEdgeStyle;rounded=0;orthogonalLoop=1;jettySize=auto;html=1;entryX=0.5;entryY=0;entryDx=0;entryDy=0;" edge="1" parent="WIyWlLk6GJQsqaUBKTNV-1" source="V1sLMrhCYjkei6vN869k-29" target="V1sLMrhCYjkei6vN869k-44">
          <mxGeometry relative="1" as="geometry" />
        </mxCell>
        <mxCell id="V1sLMrhCYjkei6vN869k-29" value="FileRegister" style="rounded=1;whiteSpace=wrap;html=1;fontSize=12;glass=0;strokeWidth=1;shadow=0;" vertex="1" parent="WIyWlLk6GJQsqaUBKTNV-1">
          <mxGeometry x="120" y="-860" width="120" height="40" as="geometry" />
        </mxCell>
        <mxCell id="V1sLMrhCYjkei6vN869k-30" value="Laufzeit" style="rhombus;whiteSpace=wrap;html=1;shadow=0;fontFamily=Helvetica;fontSize=12;align=center;strokeWidth=1;spacing=6;spacingTop=-4;" vertex="1" parent="WIyWlLk6GJQsqaUBKTNV-1">
          <mxGeometry x="250" y="-1180" width="100" height="60" as="geometry" />
        </mxCell>
        <mxCell id="V1sLMrhCYjkei6vN869k-31" value="Quarz" style="rhombus;whiteSpace=wrap;html=1;shadow=0;fontFamily=Helvetica;fontSize=12;align=center;strokeWidth=1;spacing=6;spacingTop=-4;" vertex="1" parent="WIyWlLk6GJQsqaUBKTNV-1">
          <mxGeometry x="130" y="-1180" width="100" height="60" as="geometry" />
        </mxCell>
        <mxCell id="V1sLMrhCYjkei6vN869k-38" style="edgeStyle=orthogonalEdgeStyle;rounded=0;orthogonalLoop=1;jettySize=auto;html=1;" edge="1" parent="WIyWlLk6GJQsqaUBKTNV-1" source="V1sLMrhCYjkei6vN869k-34" target="V1sLMrhCYjkei6vN869k-35">
          <mxGeometry relative="1" as="geometry" />
        </mxCell>
        <mxCell id="V1sLMrhCYjkei6vN869k-34" value="Pin Port A&lt;div&gt;0-4&lt;/div&gt;" style="rhombus;whiteSpace=wrap;html=1;shadow=0;fontFamily=Helvetica;fontSize=12;align=center;strokeWidth=1;spacing=6;spacingTop=-4;" vertex="1" parent="WIyWlLk6GJQsqaUBKTNV-1">
          <mxGeometry x="130" y="-1020" width="100" height="60" as="geometry" />
        </mxCell>
        <mxCell id="V1sLMrhCYjkei6vN869k-35" value="Tris Port A&lt;div&gt;0-7&lt;/div&gt;" style="rhombus;whiteSpace=wrap;html=1;shadow=0;fontFamily=Helvetica;fontSize=12;align=center;strokeWidth=1;spacing=6;spacingTop=-4;" vertex="1" parent="WIyWlLk6GJQsqaUBKTNV-1">
          <mxGeometry x="130" y="-940" width="100" height="60" as="geometry" />
        </mxCell>
        <mxCell id="V1sLMrhCYjkei6vN869k-39" style="edgeStyle=orthogonalEdgeStyle;rounded=0;orthogonalLoop=1;jettySize=auto;html=1;" edge="1" parent="WIyWlLk6GJQsqaUBKTNV-1" source="V1sLMrhCYjkei6vN869k-36" target="V1sLMrhCYjkei6vN869k-37">
          <mxGeometry relative="1" as="geometry" />
        </mxCell>
        <mxCell id="V1sLMrhCYjkei6vN869k-36" value="Pin Port B&lt;div&gt;0-7&lt;/div&gt;" style="rhombus;whiteSpace=wrap;html=1;shadow=0;fontFamily=Helvetica;fontSize=12;align=center;strokeWidth=1;spacing=6;spacingTop=-4;" vertex="1" parent="WIyWlLk6GJQsqaUBKTNV-1">
          <mxGeometry x="260" y="-1020" width="100" height="60" as="geometry" />
        </mxCell>
        <mxCell id="V1sLMrhCYjkei6vN869k-37" value="Tris Port B&lt;div&gt;0-7&lt;/div&gt;" style="rhombus;whiteSpace=wrap;html=1;shadow=0;fontFamily=Helvetica;fontSize=12;align=center;strokeWidth=1;spacing=6;spacingTop=-4;" vertex="1" parent="WIyWlLk6GJQsqaUBKTNV-1">
          <mxGeometry x="260" y="-940" width="100" height="60" as="geometry" />
        </mxCell>
        <mxCell id="V1sLMrhCYjkei6vN869k-73" style="edgeStyle=orthogonalEdgeStyle;rounded=0;orthogonalLoop=1;jettySize=auto;html=1;" edge="1" parent="WIyWlLk6GJQsqaUBKTNV-1" source="V1sLMrhCYjkei6vN869k-42" target="V1sLMrhCYjkei6vN869k-70">
          <mxGeometry relative="1" as="geometry" />
        </mxCell>
        <mxCell id="V1sLMrhCYjkei6vN869k-74" style="edgeStyle=orthogonalEdgeStyle;rounded=0;orthogonalLoop=1;jettySize=auto;html=1;entryX=0.5;entryY=0;entryDx=0;entryDy=0;" edge="1" parent="WIyWlLk6GJQsqaUBKTNV-1" source="V1sLMrhCYjkei6vN869k-42" target="V1sLMrhCYjkei6vN869k-71">
          <mxGeometry relative="1" as="geometry" />
        </mxCell>
        <mxCell id="V1sLMrhCYjkei6vN869k-75" style="edgeStyle=orthogonalEdgeStyle;rounded=0;orthogonalLoop=1;jettySize=auto;html=1;entryX=0.5;entryY=0;entryDx=0;entryDy=0;" edge="1" parent="WIyWlLk6GJQsqaUBKTNV-1" source="V1sLMrhCYjkei6vN869k-42" target="V1sLMrhCYjkei6vN869k-72">
          <mxGeometry relative="1" as="geometry" />
        </mxCell>
        <mxCell id="V1sLMrhCYjkei6vN869k-42" value="Bedienelemente" style="rounded=1;whiteSpace=wrap;html=1;fontSize=12;glass=0;strokeWidth=1;shadow=0;" vertex="1" parent="WIyWlLk6GJQsqaUBKTNV-1">
          <mxGeometry x="120" y="-440" width="120" height="40" as="geometry" />
        </mxCell>
        <mxCell id="V1sLMrhCYjkei6vN869k-43" value="Bank 0&lt;div&gt;(128)&lt;br&gt;&lt;/div&gt;" style="rhombus;whiteSpace=wrap;html=1;shadow=0;fontFamily=Helvetica;fontSize=12;align=center;strokeWidth=1;spacing=6;spacingTop=-4;" vertex="1" parent="WIyWlLk6GJQsqaUBKTNV-1">
          <mxGeometry x="130" y="-780" width="100" height="60" as="geometry" />
        </mxCell>
        <mxCell id="V1sLMrhCYjkei6vN869k-44" value="Bank 1&lt;div&gt;(128)&lt;/div&gt;" style="rhombus;whiteSpace=wrap;html=1;shadow=0;fontFamily=Helvetica;fontSize=12;align=center;strokeWidth=1;spacing=6;spacingTop=-4;" vertex="1" parent="WIyWlLk6GJQsqaUBKTNV-1">
          <mxGeometry x="260" y="-780" width="100" height="60" as="geometry" />
        </mxCell>
        <mxCell id="V1sLMrhCYjkei6vN869k-50" value="&lt;div&gt;IRP&lt;/div&gt;" style="rhombus;whiteSpace=wrap;html=1;shadow=0;fontFamily=Helvetica;fontSize=12;align=center;strokeWidth=1;spacing=6;spacingTop=-4;" vertex="1" parent="WIyWlLk6GJQsqaUBKTNV-1">
          <mxGeometry x="130" y="-620" width="100" height="60" as="geometry" />
        </mxCell>
        <mxCell id="V1sLMrhCYjkei6vN869k-51" value="&lt;div&gt;RP1&lt;/div&gt;" style="rhombus;whiteSpace=wrap;html=1;shadow=0;fontFamily=Helvetica;fontSize=12;align=center;strokeWidth=1;spacing=6;spacingTop=-4;" vertex="1" parent="WIyWlLk6GJQsqaUBKTNV-1">
          <mxGeometry x="260" y="-620" width="100" height="60" as="geometry" />
        </mxCell>
        <mxCell id="V1sLMrhCYjkei6vN869k-52" value="&lt;div&gt;RP0&lt;/div&gt;" style="rhombus;whiteSpace=wrap;html=1;shadow=0;fontFamily=Helvetica;fontSize=12;align=center;strokeWidth=1;spacing=6;spacingTop=-4;" vertex="1" parent="WIyWlLk6GJQsqaUBKTNV-1">
          <mxGeometry x="380" y="-620" width="100" height="60" as="geometry" />
        </mxCell>
        <mxCell id="V1sLMrhCYjkei6vN869k-53" value="&lt;div&gt;PD&lt;/div&gt;" style="rhombus;whiteSpace=wrap;html=1;shadow=0;fontFamily=Helvetica;fontSize=12;align=center;strokeWidth=1;spacing=6;spacingTop=-4;" vertex="1" parent="WIyWlLk6GJQsqaUBKTNV-1">
          <mxGeometry x="500" y="-620" width="100" height="60" as="geometry" />
        </mxCell>
        <mxCell id="V1sLMrhCYjkei6vN869k-54" value="&lt;div&gt;TO&lt;/div&gt;" style="rhombus;whiteSpace=wrap;html=1;shadow=0;fontFamily=Helvetica;fontSize=12;align=center;strokeWidth=1;spacing=6;spacingTop=-4;" vertex="1" parent="WIyWlLk6GJQsqaUBKTNV-1">
          <mxGeometry x="620" y="-620" width="100" height="60" as="geometry" />
        </mxCell>
        <mxCell id="V1sLMrhCYjkei6vN869k-55" value="&lt;div&gt;Z&lt;/div&gt;" style="rhombus;whiteSpace=wrap;html=1;shadow=0;fontFamily=Helvetica;fontSize=12;align=center;strokeWidth=1;spacing=6;spacingTop=-4;" vertex="1" parent="WIyWlLk6GJQsqaUBKTNV-1">
          <mxGeometry x="740" y="-620" width="100" height="60" as="geometry" />
        </mxCell>
        <mxCell id="V1sLMrhCYjkei6vN869k-56" value="&lt;div&gt;DC&lt;/div&gt;" style="rhombus;whiteSpace=wrap;html=1;shadow=0;fontFamily=Helvetica;fontSize=12;align=center;strokeWidth=1;spacing=6;spacingTop=-4;" vertex="1" parent="WIyWlLk6GJQsqaUBKTNV-1">
          <mxGeometry x="860" y="-620" width="100" height="60" as="geometry" />
        </mxCell>
        <mxCell id="V1sLMrhCYjkei6vN869k-57" value="&lt;div&gt;C&lt;/div&gt;" style="rhombus;whiteSpace=wrap;html=1;shadow=0;fontFamily=Helvetica;fontSize=12;align=center;strokeWidth=1;spacing=6;spacingTop=-4;" vertex="1" parent="WIyWlLk6GJQsqaUBKTNV-1">
          <mxGeometry x="980" y="-620" width="100" height="60" as="geometry" />
        </mxCell>
        <mxCell id="V1sLMrhCYjkei6vN869k-66" value="Stack" style="rounded=1;whiteSpace=wrap;html=1;fontSize=12;glass=0;strokeWidth=1;shadow=0;" vertex="1" parent="WIyWlLk6GJQsqaUBKTNV-1">
          <mxGeometry x="120" y="-540" width="120" height="40" as="geometry" />
        </mxCell>
        <mxCell id="V1sLMrhCYjkei6vN869k-70" value="&lt;div&gt;Start&lt;/div&gt;" style="rhombus;whiteSpace=wrap;html=1;shadow=0;fontFamily=Helvetica;fontSize=12;align=center;strokeWidth=1;spacing=6;spacingTop=-4;" vertex="1" parent="WIyWlLk6GJQsqaUBKTNV-1">
          <mxGeometry x="130" y="-370" width="100" height="60" as="geometry" />
        </mxCell>
        <mxCell id="V1sLMrhCYjkei6vN869k-71" value="&lt;div&gt;Reset&lt;/div&gt;" style="rhombus;whiteSpace=wrap;html=1;shadow=0;fontFamily=Helvetica;fontSize=12;align=center;strokeWidth=1;spacing=6;spacingTop=-4;" vertex="1" parent="WIyWlLk6GJQsqaUBKTNV-1">
          <mxGeometry x="260" y="-370" width="100" height="60" as="geometry" />
        </mxCell>
        <mxCell id="V1sLMrhCYjkei6vN869k-72" value="&lt;div&gt;Step&lt;/div&gt;" style="rhombus;whiteSpace=wrap;html=1;shadow=0;fontFamily=Helvetica;fontSize=12;align=center;strokeWidth=1;spacing=6;spacingTop=-4;" vertex="1" parent="WIyWlLk6GJQsqaUBKTNV-1">
          <mxGeometry x="380" y="-370" width="100" height="60" as="geometry" />
        </mxCell>
        <mxCell id="V1sLMrhCYjkei6vN869k-79" value="Programm-View" style="rounded=1;whiteSpace=wrap;html=1;fontSize=12;glass=0;strokeWidth=1;shadow=0;" vertex="1" parent="WIyWlLk6GJQsqaUBKTNV-1">
          <mxGeometry x="120" y="-200" width="120" height="40" as="geometry" />
        </mxCell>
        <mxCell id="V1sLMrhCYjkei6vN869k-81" value="Handler" style="rhombus;whiteSpace=wrap;html=1;shadow=0;fontFamily=Helvetica;fontSize=12;align=center;strokeWidth=1;spacing=6;spacingTop=-4;" vertex="1" parent="WIyWlLk6GJQsqaUBKTNV-1">
          <mxGeometry x="727" y="430" width="100" height="60" as="geometry" />
        </mxCell>
      </root>
    </mxGraphModel>
  </diagram>
</mxfile>
